<svg width="35" height="37" viewBox="0 0 35 37" fill="none" xmlns="http://www.w3.org/2000/svg">
<path d="M20.5192 36.1541C19.0988 31.0052 17.3233 19.1096 21.5844 12.7179C24.2012 8.79277 27.5894 6.92454 30.1068 6.67111M30.1068 6.67111C32.7135 6.4087 34.3866 7.87774 33.3027 10.5874C31.1721 15.9138 22.6488 18.5771 19.4541 12.1854C15.5122 4.29891 24.7794 -4.32639 25.8446 7.92431C25.312 5.97131 24.9934 1 27.9762 1C30.959 1 30.6394 4.78074 30.1068 6.67111Z" stroke="#A68658" stroke-width="1.5"/>
<path d="M18.9206 24.4365C16.8747 21.9814 12.5027 17.7031 8.26762 16.045M8.26762 16.045C6.98985 15.5447 5.72455 15.2829 4.53938 15.3816C-1.8523 15.9143 0.810902 24.9691 9.33313 24.9691C17.8554 24.9691 18.9204 10.0554 11.9961 9.52254C8.80025 9.27661 7.20234 13.6933 8.26762 16.045Z" stroke="#A68658" stroke-width="1.5"/>
<path d="M4.00673 15.3805C3.47409 13.9602 2.9413 10.906 5.07201 10.0542C6.85956 9.33951 8.44543 10.4092 8.80054 11.1194M22.6486 27.0992C25.4894 26.9217 31.1708 27.5253 31.1708 31.3603C31.1708 36.1541 23.1812 32.4256 22.116 27.0992C21.0507 21.7729 28.5076 16.9791 30.1055 20.7076C31.3839 23.6904 25.6669 26.2115 22.6486 27.0992Z" stroke="#A68658" stroke-width="1.5"/>
</svg>
