<svg width="103" height="34" viewBox="0 0 103 34" fill="none" xmlns="http://www.w3.org/2000/svg">
<g clip-path="url(#clip0)">
<path d="M0.463867 11.3469C0.463867 11.3469 22.7099 24.7159 79.8219 15.6249" stroke="#A68658" stroke-width="1.8" stroke-miterlimit="10"/>
<path d="M78.8594 15.84C78.8594 15.84 94.1534 20.76 100.459 14.129C98.43 14.3091 96.3887 14.3091 94.3594 14.129C91.6934 13.807 85.1694 10.385 78.8594 15.84Z" stroke="#A68658" stroke-width="1.8" stroke-miterlimit="10"/>
<path d="M67.6299 17.015C67.6299 17.015 81.5299 9.74297 82.7099 2.46997C81.2361 3.74612 79.5772 4.79134 77.7899 5.56997C74.6889 6.96197 68.3789 6.74797 67.6299 17.015Z" stroke="#A68658" stroke-width="1.8" stroke-miterlimit="10"/>
<path d="M54.7959 18.4019C54.7959 18.4019 70.9459 17.0119 75.7589 28.0279C74.285 26.9589 72.6122 26.1952 70.8389 25.7819C68.1649 25.2509 60.1439 26.8549 54.7959 18.4019Z" stroke="#A68658" stroke-width="1.8" stroke-miterlimit="10"/>
<path d="M41.4268 18.623C41.4268 18.623 63.8868 16.802 62.7098 4.823C61.494 6.08943 59.9904 7.04348 58.3268 7.604C55.6518 8.459 46.5608 7.923 41.4268 18.623Z" stroke="#A68658" stroke-width="1.8" stroke-miterlimit="10"/>
<path d="M29.0195 18.5129C29.0195 18.5129 53.6195 24.1809 56.1855 31.6679C56.1855 31.6679 53.1905 30.0679 51.3725 30.0679C49.5545 30.0679 29.2335 31.7749 29.0195 18.5129Z" stroke="#A68658" stroke-width="1.8" stroke-miterlimit="10"/>
<path d="M25.9189 17.336C25.9189 17.336 42.4969 10.277 43.6729 4.50195C42.5421 5.23086 41.3194 5.80624 40.0369 6.21295C37.5769 7.06895 30.8389 4.92995 25.9189 17.336Z" stroke="#A68658" stroke-width="1.8" stroke-miterlimit="10"/>
<path d="M12.2287 15.946C12.2287 15.946 23.8867 24.074 24.6347 31.775C23.6974 30.9615 22.6547 30.278 21.5347 29.743C20.4637 29.422 9.01974 26.427 12.2287 15.946Z" stroke="#A68658" stroke-width="1.8" stroke-miterlimit="10"/>
</g>
<defs>
<clipPath id="clip0">
<rect width="102.772" height="33.886" fill="white"/>
</clipPath>
</defs>
</svg>
