<svg width="81" height="81" viewBox="0 0 81 81" fill="none" xmlns="http://www.w3.org/2000/svg">
<circle cx="40.5" cy="40.5" r="39.75" stroke="#A68658" stroke-width="1.5"/>
<path d="M42.5192 59.1541C41.0988 54.0052 39.3233 42.1096 43.5844 35.7179C46.2012 31.7928 49.5894 29.9245 52.1068 29.6711M52.1068 29.6711C54.7135 29.4087 56.3866 30.8777 55.3027 33.5874C53.1721 38.9138 44.6488 41.5771 41.4541 35.1854C37.5122 27.2989 46.7794 18.6736 47.8446 30.9243C47.312 28.9713 46.9934 24 49.9762 24C52.959 24 52.6394 27.7807 52.1068 29.6711Z" stroke="#A68658" stroke-width="1.5"/>
<path d="M40.9206 47.4365C38.8747 44.9814 34.5027 40.7031 30.2676 39.045M30.2676 39.045C28.9898 38.5447 27.7246 38.2829 26.5394 38.3816C20.1477 38.9143 22.8109 47.9691 31.3331 47.9691C39.8554 47.9691 40.9204 33.0554 33.9961 32.5225C30.8003 32.2766 29.2023 36.6933 30.2676 39.045Z" stroke="#A68658" stroke-width="1.5"/>
<path d="M26.0067 38.3805C25.4741 36.9602 24.9413 33.906 27.072 33.0542C28.8596 32.3395 30.4454 33.4092 30.8005 34.1194M44.6486 50.0992C47.4894 49.9217 53.1708 50.5253 53.1708 54.3603C53.1708 59.1541 45.1812 55.4256 44.116 50.0992C43.0507 44.7729 50.5076 39.9791 52.1055 43.7076C53.3839 46.6904 47.6669 49.2115 44.6486 50.0992Z" stroke="#A68658" stroke-width="1.5"/>
</svg>
