<svg width="24" height="24" viewBox="0 0 24 24" fill="none" xmlns="http://www.w3.org/2000/svg">
<path d="M23 11V6C23 4.34315 21.6569 3 20 3H4C2.34315 3 1 4.34315 1 6V20C1 21.6569 2.34315 23 4 23H11" stroke="#2F4F75" stroke-width="1.5" stroke-linecap="round" stroke-linejoin="round"/>
<path d="M6 1V5" stroke="#2F4F75" stroke-width="1.5" stroke-linecap="round"/>
<path d="M12 1V5" stroke="#2F4F75" stroke-width="1.5" stroke-linecap="round"/>
<path d="M18 1V5" stroke="#2F4F75" stroke-width="1.5" stroke-linecap="round"/>
<circle cx="6" cy="10" r="1" fill="#2F4F75"/>
<circle cx="10" cy="10" r="1" fill="#2F4F75"/>
<circle cx="14" cy="10" r="1" fill="#2F4F75"/>
<circle cx="18" cy="10" r="1" fill="#2F4F75"/>
<circle cx="6" cy="14" r="1" fill="#2F4F75"/>
<circle cx="10" cy="14" r="1" fill="#2F4F75"/>
<circle cx="18.25" cy="18.25" r="5" stroke="#2F4F75" stroke-width="1.5"/>
<path d="M18 16V18.5H20" stroke="#2F4F75" stroke-width="1.5" stroke-linecap="round" stroke-linejoin="round"/>
<circle cx="6" cy="18" r="1" fill="#2F4F75"/>
<circle cx="10" cy="18" r="1" fill="#2F4F75"/>
</svg>
