<svg width="24" height="24" viewBox="0 0 24 24" fill="none" xmlns="http://www.w3.org/2000/svg">
<path d="M9.25046 7.97803L9.99995 8.73554L10.7494 7.97803C12.6439 6.06331 15.737 6.06331 17.6314 7.97803C19.4976 9.86415 19.4976 12.901 17.6314 14.7872L9.99995 22.5002L2.3685 14.7872C0.502332 12.901 0.502331 9.86415 2.36849 7.97803C4.26295 6.06331 7.35601 6.06331 9.25046 7.97803Z" stroke="#2F4F75" stroke-width="1.5"/>
<path d="M6.92903 6.50049C6.64179 5.10672 7.04273 3.59924 8.13185 2.52293C9.8269 0.847825 12.554 0.847826 14.2491 2.52293L15 3.26501L15.7509 2.52293C17.4459 0.847825 20.1731 0.847825 21.8681 2.52293C23.5918 4.22631 23.5918 7.00959 21.8681 8.71297L18.8633 11.6824" stroke="#2F4F75" stroke-width="1.5"/>
</svg>
