<svg width="24" height="24" viewBox="0 0 24 24" fill="none" xmlns="http://www.w3.org/2000/svg">
<g clip-path="url(#clip0)">
<path d="M1 9C1 7.89543 1.89543 7 3 7H18C19.1046 7 20 7.89543 20 9V20C20 21.1046 19.1046 22 18 22H3C1.89543 22 1 21.1046 1 20V9Z" stroke="#2F4F75" stroke-width="1.5"/>
<path d="M4 6.99986L4.35642 3.96466C4.48425 2.87606 5.46447 2.09316 6.5544 2.20914L21.4917 3.79863C22.5901 3.91551 23.3857 4.90066 23.2689 5.99903L22.1203 16.7924C21.9976 17.9458 20.9227 18.7532 19.7809 18.5498L19.5 18.4998" stroke="#2F4F75" stroke-width="1.5"/>
<path d="M1 17.5L5.18315 14.4577C5.95004 13.9 7.00318 13.9574 7.70483 14.5953L10.8792 17.4811C11.5421 18.0837 12.5248 18.172 13.2845 17.6972L20 13.5" stroke="#2F4F75" stroke-width="1.5"/>
<circle cx="12" cy="11.5" r="1.75" stroke="#2F4F75" stroke-width="1.5"/>
</g>
<defs>
<clipPath id="clip0">
<rect width="24" height="24" fill="white"/>
</clipPath>
</defs>
</svg>
