<svg width="24" height="24" viewBox="0 0 24 24" fill="none" xmlns="http://www.w3.org/2000/svg">
<path d="M1 12.9274C1 11.2928 2.8544 10.3485 4.17634 11.3099L10.8237 16.1443C11.525 16.6544 12.475 16.6544 13.1763 16.1443L19.8237 11.3099C21.1456 10.3485 23 11.2928 23 12.9274V20.9999C23 22.1044 22.1046 22.9999 21 22.9999H3C1.89543 22.9999 1 22.1044 1 20.9999V12.9274Z" stroke="#2F4F75" stroke-width="1.5"/>
<path d="M2.25 7C2.25 7.41421 2.58579 7.75 3 7.75C3.41421 7.75 3.75 7.41421 3.75 7H2.25ZM20.25 7C20.25 7.41421 20.5858 7.75 21 7.75C21.4142 7.75 21.75 7.41421 21.75 7H20.25ZM3.75 7V3H2.25V7H3.75ZM5 1.75H19V0.25H5V1.75ZM20.25 3V7H21.75V3H20.25ZM19 1.75C19.6904 1.75 20.25 2.30964 20.25 3H21.75C21.75 1.48122 20.5188 0.25 19 0.25V1.75ZM3.75 3C3.75 2.30964 4.30964 1.75 5 1.75V0.25C3.48122 0.25 2.25 1.48122 2.25 3H3.75Z" fill="#2F4F75"/>
<path d="M12 4L13.3872 6.09072L15.8043 6.76393L14.2445 8.72928L14.3512 11.2361L12 10.36L9.64889 11.2361L9.75553 8.72928L8.1958 6.76393L10.6129 6.09072L12 4Z" stroke="#2F4F75" stroke-width="1.5" stroke-linejoin="round"/>
</svg>
