<svg width="24" height="24" viewBox="0 0 24 24" fill="none" xmlns="http://www.w3.org/2000/svg">
<path d="M1 8C1 6.89543 1.89543 6 3 6H21C22.1046 6 23 6.89543 23 8V21C23 22.1046 22.1046 23 21 23H3C1.89543 23 1 22.1046 1 21V8Z" stroke="#2F4F75" stroke-width="1.5"/>
<path d="M4.5 6.00014L10.3138 1.97519C10.7112 1.70009 11.2484 1.74854 11.5901 2.09027L13 3.50014M10 6.00014L15.3062 2.02051C15.7043 1.72192 16.2614 1.76152 16.6133 2.11341L20.5 6.00014" stroke="#2F4F75" stroke-width="1.5"/>
<path d="M4 10V19" stroke="#2F4F75" stroke-width="1.5" stroke-linecap="round"/>
<path d="M23 11H17C15.8954 11 15 11.8954 15 13V16C15 17.1046 15.8954 18 17 18H23" stroke="#2F4F75" stroke-width="1.5"/>
<circle cx="19.5" cy="14.5" r="1.25" stroke="#2F4F75" stroke-width="1.5"/>
</svg>
