<svg width="24" height="24" viewBox="0 0 24 24" fill="none" xmlns="http://www.w3.org/2000/svg">
<path d="M18.5762 18.5301C16.6004 19.7791 14.2336 20.2558 11.9285 19.8691C9.62331 19.4825 7.54159 18.2596 6.08152 16.4343C4.62145 14.6091 3.88551 12.3096 4.01448 9.97583C4.14345 7.64202 5.12827 5.43767 6.78057 3.78442C8.43286 2.13118 10.6366 1.14509 12.9704 1.01478C15.3041 0.884476 17.604 1.61909 19.4301 3.07812C21.2561 4.53714 22.4802 6.61815 22.8682 8.9231C23.2562 11.228 22.7808 13.5951 21.533 15.5716" stroke="#2F4F75" stroke-width="1.5" stroke-linecap="round"/>
<path d="M21.5 15.5L22.6838 19.0513C22.8141 19.4422 22.4422 19.8141 22.0513 19.6838L18.5 18.5" stroke="#2F4F75" stroke-width="1.5" stroke-linejoin="round"/>
<path d="M3.91345 10.3169C2.49419 11.3374 1.50812 12.852 1.14918 14.5628C0.790235 16.2737 1.08439 18.0569 1.9738 19.5618M4.42167 22.0165C5.93343 22.9156 7.72829 23.2127 9.44913 22.8486C11.17 22.4844 12.6907 21.4858 13.7086 20.0513" stroke="#2F4F75" stroke-width="1.5" stroke-linecap="round"/>
<path d="M2 19.5L1 23L4.5 22" stroke="#2F4F75" stroke-width="1.5" stroke-linejoin="round"/>
<path d="M9 7H18" stroke="#2F4F75" stroke-width="1.5" stroke-linecap="round"/>
<path d="M9 10H18" stroke="#2F4F75" stroke-width="1.5" stroke-linecap="round"/>
<path d="M9 13H14" stroke="#2F4F75" stroke-width="1.5" stroke-linecap="round"/>
</svg>
